<?xml version="1.0" ?>
<!-- Uploaded to: SVG Repo, www.svgrepo.com, Generator: SVG Repo Mixer Tools -->
<svg fill="#000000" width="800px" height="800px" viewBox="0 0 64 64" xmlns="http://www.w3.org/2000/svg">
<g id="Moon">
<path d="M36.7,36a3.81,3.81,0,1,0-3.81-3.81A3.81,3.81,0,0,0,36.7,36Zm0-5.62a1.81,1.81,0,1,1-1.81,1.81A1.81,1.81,0,0,1,36.7,30.36Z"/>
<path d="M50.29,37.73h-.8a18.14,18.14,0,0,0,.69-4.91,18.37,18.37,0,0,0-.8-5.31,9.94,9.94,0,0,1,2.35-1.67c1.31-.65,2.17-1.09,2.17-2s-.86-1.36-2.17-2a10.05,10.05,0,0,1-4.41-4.41c-.65-1.31-1.09-2.17-2-2.17s-1.36.87-2,2.17c-.14.27-.29.53-.45.79a18.15,18.15,0,0,0-17.46-2.46,10,10,0,0,1-3.05-3.56c-.66-1.31-1.09-2.17-2-2.17s-1.37.86-2,2.17a10.05,10.05,0,0,1-4.41,4.41c-1.31.66-2.17,1.09-2.17,2s.86,1.36,2.17,2a10.1,10.1,0,0,1,2.75,2.07,18.15,18.15,0,0,0-2.93,8,6.7,6.7,0,0,0-.6,13.38,1.61,1.61,0,0,0-.95,1.36c0,.93.86,1.36,2.17,2a10,10,0,0,1,4.41,4.41c.66,1.31,1.09,2.17,2,2.17s1.37-.86,2-2.17a10.33,10.33,0,0,1,1.62-2.31,18.44,18.44,0,0,0,7.49,1.61H50.29a6.71,6.71,0,1,0,0-13.41ZM39.14,47.41a6.65,6.65,0,0,1,6-9.47,6.88,6.88,0,0,1,2.06.33A16.39,16.39,0,0,1,39.14,47.41Zm5.93-29.12.23-.46.24.46a12,12,0,0,0,5.29,5.3c.13.06.3.14.46.23l-.46.24a12,12,0,0,0-5.29,5.29c-.07.13-.15.3-.24.46-.09-.16-.17-.33-.23-.46a12,12,0,0,0-5.3-5.29l-.46-.24.46-.23A12.27,12.27,0,0,0,45.07,18.29Zm-3.46,1.46a10,10,0,0,1-2.74,2.05c-1.3.66-2.17,1.09-2.17,2s.87,1.37,2.17,2a10,10,0,0,1,4.41,4.41c.66,1.31,1.09,2.17,2,2.17s1.37-.86,2-2.17a8.77,8.77,0,0,1,.49-.84,16.26,16.26,0,0,1,.37,3.41,15.72,15.72,0,0,1-.4,3.53,8.84,8.84,0,0,0-2.61-.41,8.67,8.67,0,0,0-8.66,8.66,8.54,8.54,0,0,0,.79,3.59,16.31,16.31,0,0,1-5.43,1,16.48,16.48,0,0,1-5.77-1.07,10.43,10.43,0,0,1,1.07-.64c1.31-.66,2.17-1.09,2.17-2s-.86-1.36-2.17-2A10,10,0,0,1,22.76,39c-.65-1.31-1.09-2.17-2-2.17s-1.36.86-2,2.17a10,10,0,0,1-1.13,1.74,16.23,16.23,0,0,1-2-7.9v0h.38A8.36,8.36,0,0,0,22.61,19.4a16.27,16.27,0,0,1,19,.35ZM21,20.64a6.35,6.35,0,0,1-5.11,10.14h0l-.24,0A16.34,16.34,0,0,1,21,20.64Zm-6.27-1.81-.47-.24.47-.24a12,12,0,0,0,5.29-5.29c.07-.13.15-.3.24-.46.09.16.17.33.23.46a12.12,12.12,0,0,0,2.78,3.58,18.3,18.3,0,0,0-5.46,4.42A12,12,0,0,0,14.77,18.83ZM9,37.38a4.7,4.7,0,0,1,4.56-4.69,18.12,18.12,0,0,0,2.51,9.39H13.71A4.71,4.71,0,0,1,9,37.38ZM21,50.94c-.07.13-.15.3-.24.46-.09-.16-.17-.33-.23-.46a12,12,0,0,0-5.3-5.29l-.46-.24.46-.24a12.19,12.19,0,0,0,5.3-5.29c.06-.13.14-.29.23-.46l.24.46a12,12,0,0,0,5.29,5.29l.46.24-.46.24A12,12,0,0,0,21,50.94Zm29.31-1.8H40.14a18.41,18.41,0,0,0,8.68-9.41h1.47a4.71,4.71,0,1,1,0,9.41Z"/>
<circle cx="30.56" cy="40.83" r="1.25"/>
<circle cx="30.32" cy="24.37" r="1.25"/>
<circle cx="27.39" cy="32.94" r="1.25"/>
</g>
</svg>